<svg id="Ebene_1" data-name="Ebene 1" xmlns="http://www.w3.org/2000/svg" viewBox="0 0 1142.23 203.03"><defs><style>.cls-1{fill:#86ecf6;}.cls-2{fill:#69e8f4;}.cls-3{fill:#a4f1f8;}.cls-4{fill:#98eef7;}.cls-5{fill:#97eef7;}</style></defs><path class="cls-1" d="M340.23,481.51,397,594.65c.21.43.37.89.55,1.34-.72.8-1.57.46-2.3.46q-26.38,0-52.76,0c-.93,0-2,.43-2.76-.61a12,12,0,0,1,1.72-4.74q12-24,24-47.92c1.66-3.33,1.64-3.35-2.09-3.36q-23.68,0-47.38,0a10.84,10.84,0,0,1-4.16-.36,5,5,0,0,1-1.28-.6,9,9,0,0,1-1.54-2.54q-12.9-25.75-25.79-51.52c-.65-1.31-1.94-2.66-.6-4.3a8.14,8.14,0,0,1,3.81-.54q24.5,0,49,0C337.13,480,339,479.68,340.23,481.51Z" transform="translate(-108.98 -422.73)"/><path class="cls-1" d="M137,539q13.43-26.73,26.86-53.46c.58-1.16,1.19-2.3,1.79-3.45.85-1.62,2.28-2.05,4-2.05h51.56a5.24,5.24,0,0,1,3.13.86q13.83,27.58,27.66,55.18a14.44,14.44,0,0,1,.62,1.66.74.74,0,0,1-.33,1,8.42,8.42,0,0,1-4.09.58c-16.55,0-33.09,0-49.64,0a9.18,9.18,0,0,1-3-.34l-1.08.67a13.41,13.41,0,0,1-3,.28c-16.57,0-33.14,0-49.71,0C140.25,539.94,138.48,540.29,137,539Z" transform="translate(-108.98 -422.73)"/><path class="cls-2" d="M137,539l54.78,0c1,0,2-.28,2.76.7-3.76,7.59-7.49,15.2-11.28,22.79-5.25,10.54-10.56,21-15.78,31.59-.78,1.58-1.59,2.45-3.56,2.44q-26.4-.13-52.79,0c-2.43,0-2.64-.56-1.6-2.63Q123.37,566.49,137,539Z" transform="translate(-108.98 -422.73)"/><path class="cls-1" d="M310.34,539.69c-3.56,7.23-7.1,14.47-10.69,21.68-5.46,11-11,21.89-16.41,32.86-.73,1.47-1.52,2.29-3.36,2.28-18.45-.09-36.9-.09-55.36-.12-.36-1.39.4-2.5,1-3.64q12.72-25.49,25.51-50.92c.75-1.49,1.35-3.17,3.33-3.54,11.17-.33,22.34-.08,33.51-.14,6.38,0,12.76-.06,19.14,0C308.21,538.21,309.94,537.63,310.34,539.69Z" transform="translate(-108.98 -422.73)"/><path class="cls-3" d="M253.26,539l-28.74,57.4c-.76-.27-.89-1-1.19-1.63q-13.5-26.88-27-53.79a16.07,16.07,0,0,1-.72-1.94c1-1.1,2.24-.62,3.38-.62q26.81-.06,53.61,0A.73.73,0,0,1,253.26,539Z" transform="translate(-108.98 -422.73)"/><path class="cls-3" d="M340.23,481.51a5.63,5.63,0,0,0-3.18-.6q-26.1,0-52.19,0c-.95,0-2-.35-2.8.58l-.21.2-.26-.13c0-1.71,1.29-2.86,2-4.26q12.66-25.45,25.44-50.85c.49-1,1-1.91,1.54-2.91,1.45.57,1.6,1.88,2.1,2.88Q325.36,451.7,338,477C338.75,478.5,339.49,480,340.23,481.51Z" transform="translate(-108.98 -422.73)"/><path class="cls-2" d="M166.85,479.7l28.48-57,4.6,9.16q11.31,22.58,22.62,45.15c.53,1.06,1,2.18,1.43,3.27a5.52,5.52,0,0,1-2.93.28q-25.59,0-51.19,0C168.89,480.54,167.4,481.51,166.85,479.7Z" transform="translate(-108.98 -422.73)"/><path class="cls-2" d="M281.59,481.58l.47-.07a6.83,6.83,0,0,1,1.68,2.77q13.58,27,27.11,54.12a4.56,4.56,0,0,1-2.63.27c-17.39,0-34.78,0-52.17,0-.89,0-2.21.78-2.72-.78L278.44,488C279.52,485.88,280.54,483.72,281.59,481.58Z" transform="translate(-108.98 -422.73)"/><path class="cls-2" d="M311.49,539h56.76c-.38.91-.56,1.46-.82,2Q354,567.82,340.54,594.65a8.9,8.9,0,0,1-.85,1.19l-28.23-56.26c-.22-.14-.28-.27-.2-.4S311.41,539,311.49,539Z" transform="translate(-108.98 -422.73)"/><path class="cls-4" d="M166.85,479.7c.87,1,2.05.59,3.09.6q27,0,54,0c.14.2.27.41.41.62q-27.42,0-54.84-.05a5.73,5.73,0,0,0-3.86,1.23A3.8,3.8,0,0,1,166.85,479.7Z" transform="translate(-108.98 -422.73)"/><path class="cls-5" d="M311.49,539l0,.58-1.12.11c-.93-1.13-2.21-.68-3.35-.68q-26.87,0-53.73,0l-.61-.63c0-.2,0-.39,0-.59l.66.09c1,.95,2.28.51,3.42.51q27.06,0,54.1,0Z" transform="translate(-108.98 -422.73)"/><path d="M445,514.87a42.23,42.23,0,0,1,21.2,5.64,40.68,40.68,0,0,1,15.49,15.31,41.12,41.12,0,0,1,5.57,20.87,41.94,41.94,0,0,1-5.6,21.1,40.42,40.42,0,0,1-15.28,15.34,42.12,42.12,0,0,1-21.31,5.53,39.75,39.75,0,0,1-29.26-12.19,42.25,42.25,0,0,1,1.58-60.76A40,40,0,0,1,445,514.87Zm.33,18.82a20.6,20.6,0,0,0-15.52,6.49q-6.19,6.48-6.2,16.59,0,10.4,6.13,16.84a20.46,20.46,0,0,0,15.51,6.45,20.76,20.76,0,0,0,15.63-6.52q6.24-6.52,6.24-16.77T461,540.1A20.71,20.71,0,0,0,445.33,533.69Z" transform="translate(-108.98 -422.73)"/><path d="M495.06,516.92h20.37l20.13,47,20.09-47h20.27L542,596.61H529Z" transform="translate(-108.98 -422.73)"/><path d="M595.4,484.11a12.22,12.22,0,0,1,9,3.81,13.12,13.12,0,0,1,0,18.35,12.12,12.12,0,0,1-8.91,3.77,12.24,12.24,0,0,1-9.1-3.85,12.87,12.87,0,0,1-3.76-9.34,12.75,12.75,0,0,1,12.71-12.74Zm-10,32.81h20v79.69h-20Z" transform="translate(-108.98 -422.73)"/><path d="M703.4,562.55H639.16a21.41,21.41,0,0,0,7.44,13.52q6,5,15.41,5a26.7,26.7,0,0,0,19.27-7.83l16.84,7.91A39.86,39.86,0,0,1,683,594.38q-8.78,4.27-20.87,4.28-18.75,0-30.54-11.83t-11.79-29.62q0-18.24,11.75-30.29t29.48-12q18.83,0,30.62,12t11.79,31.82Zm-20-15.75A20,20,0,0,0,675.59,536a22.62,22.62,0,0,0-13.54-4.18,23.9,23.9,0,0,0-14.67,4.69q-4,2.92-7.34,10.32Z" transform="translate(-108.98 -422.73)"/><path d="M722.07,488.87h53.47v20H742.43v19.55h33.11v19.7H742.43v48.49H722.07Z" transform="translate(-108.98 -422.73)"/><path d="M850.39,516.92h20v79.69h-20v-8.42a39.22,39.22,0,0,1-11.74,8,32.93,32.93,0,0,1-12.76,2.45q-15.43,0-26.71-12t-11.26-29.78q0-18.45,10.9-30.25t26.48-11.79a33.75,33.75,0,0,1,13.46,2.71,36.87,36.87,0,0,1,11.63,8.13Zm-21,16.41a20.2,20.2,0,0,0-15.4,6.55q-6.13,6.55-6.13,16.81t6.24,17a20.23,20.23,0,0,0,15.37,6.66,20.58,20.58,0,0,0,15.62-6.56q6.2-6.54,6.2-17.17,0-10.39-6.2-16.85A20.89,20.89,0,0,0,829.37,533.33Z" transform="translate(-108.98 -422.73)"/><path d="M968.61,533,952,542.19a28.23,28.23,0,0,0-9.28-6.81,27.81,27.81,0,0,0-10.74-1.9q-11.22,0-18.15,6.69t-6.93,17.14q0,10.17,6.68,16.61t17.52,6.43q13.43,0,20.9-9.15L967.73,582q-12.83,16.66-36.18,16.67-21,0-32.93-12.45a41.42,41.42,0,0,1,10-65.77,48.2,48.2,0,0,1,23.18-5.57,47,47,0,0,1,21.31,4.73A40.51,40.51,0,0,1,968.61,533Z" transform="translate(-108.98 -422.73)"/><path d="M989,487.55h20v29.37h11.86v17.21H1009v62.48H989V534.13H978.79V516.92H989Z" transform="translate(-108.98 -422.73)"/><path d="M1069,514.87a42.2,42.2,0,0,1,21.2,5.64,41.32,41.32,0,0,1,21.06,36.18,41.94,41.94,0,0,1-5.6,21.1,40.46,40.46,0,0,1-15.27,15.34,42.16,42.16,0,0,1-21.32,5.53,39.75,39.75,0,0,1-29.26-12.19,42.25,42.25,0,0,1,1.58-60.76A40,40,0,0,1,1069,514.87Zm.33,18.82a20.61,20.61,0,0,0-15.52,6.49q-6.19,6.48-6.2,16.59,0,10.4,6.13,16.84a20.48,20.48,0,0,0,15.52,6.45,20.72,20.72,0,0,0,15.62-6.52q6.24-6.52,6.24-16.77T1085,540.1A20.71,20.71,0,0,0,1069.35,533.69Z" transform="translate(-108.98 -422.73)"/><path d="M1122.93,516.92h17.14v10a21.37,21.37,0,0,1,7.39-9,17.88,17.88,0,0,1,10.11-3.08,18.79,18.79,0,0,1,8.13,2l-6.22,17.21a13.8,13.8,0,0,0-5.79-1.75q-4.62,0-7.8,5.71t-3.19,22.41l.08,3.88v32.23h-19.85Z" transform="translate(-108.98 -422.73)"/><path d="M1166.75,516.92h20.43l20.7,50,22.84-50h20.49L1201.3,625.76h-20.65l16.39-35.1Z" transform="translate(-108.98 -422.73)"/></svg>